<svg width="48" height="49" viewBox="0 0 48 49" fill="none" xmlns="http://www.w3.org/2000/svg">
<rect x="0.5" y="1" width="47" height="47" rx="23.5" stroke="#262424"/>
<path d="M32.1 18.1359C32.1 19.0945 31.3229 19.8716 30.3643 19.8716C29.4057 19.8716 28.6286 19.0945 28.6286 18.1359C28.6286 17.1772 29.4057 16.4001 30.3643 16.4001C31.3229 16.4001 32.1 17.1772 32.1 18.1359Z" fill="#C7A17A"/>
<path fill-rule="evenodd" clip-rule="evenodd" d="M24 30.2859C27.1954 30.2859 29.7857 27.6955 29.7857 24.5001C29.7857 21.3048 27.1954 18.7144 24 18.7144C20.8047 18.7144 18.2143 21.3048 18.2143 24.5001C18.2143 27.6955 20.8047 30.2859 24 30.2859ZM24 27.9716C25.9172 27.9716 27.4714 26.4174 27.4714 24.5001C27.4714 22.5829 25.9172 21.0287 24 21.0287C22.0828 21.0287 20.5286 22.5829 20.5286 24.5001C20.5286 26.4174 22.0828 27.9716 24 27.9716Z" fill="#C7A17A"/>
<path fill-rule="evenodd" clip-rule="evenodd" d="M12.4286 24.0373C12.4286 20.1489 12.4286 18.2047 13.1853 16.7196C13.851 15.4132 14.9131 14.3511 16.2195 13.6854C17.7046 12.9287 19.6488 12.9287 23.5372 12.9287H24.4629C28.3512 12.9287 30.2954 12.9287 31.7806 13.6854C33.087 14.3511 34.1491 15.4132 34.8147 16.7196C35.5714 18.2047 35.5714 20.1489 35.5714 24.0373V24.963C35.5714 28.8514 35.5714 30.7955 34.8147 32.2807C34.1491 33.5871 33.087 34.6492 31.7806 35.3148C30.2954 36.0716 28.3512 36.0716 24.4629 36.0716H23.5372C19.6488 36.0716 17.7046 36.0716 16.2195 35.3148C14.9131 34.6492 13.851 33.5871 13.1853 32.2807C12.4286 30.7955 12.4286 28.8514 12.4286 24.963V24.0373ZM23.5372 15.243H24.4629C26.4452 15.243 27.7928 15.2448 28.8345 15.3299C29.8491 15.4128 30.368 15.5631 30.7299 15.7475C31.6008 16.1912 32.3089 16.8993 32.7527 17.7702C32.9371 18.1322 33.0874 18.6511 33.1703 19.6657C33.2554 20.7073 33.2572 22.0549 33.2572 24.0373V24.963C33.2572 26.9454 33.2554 28.293 33.1703 29.3346C33.0874 30.3492 32.9371 30.8681 32.7527 31.23C32.3089 32.101 31.6008 32.809 30.7299 33.2528C30.368 33.4372 29.8491 33.5875 28.8345 33.6704C27.7928 33.7555 26.4452 33.7573 24.4629 33.7573H23.5372C21.5548 33.7573 20.2072 33.7555 19.1656 33.6704C18.1509 33.5875 17.6321 33.4372 17.2701 33.2528C16.3992 32.809 15.6911 32.101 15.2474 31.23C15.0629 30.8681 14.9127 30.3492 14.8298 29.3346C14.7447 28.293 14.7429 26.9454 14.7429 24.963V24.0373C14.7429 22.0549 14.7447 20.7073 14.8298 19.6657C14.9127 18.6511 15.0629 18.1322 15.2474 17.7702C15.6911 16.8993 16.3992 16.1912 17.2701 15.7475C17.6321 15.5631 18.1509 15.4128 19.1656 15.3299C20.2072 15.2448 21.5548 15.243 23.5372 15.243Z" fill="#C7A17A"/>
</svg>
