<svg width="48" height="49" viewBox="0 0 48 49" fill="none" xmlns="http://www.w3.org/2000/svg">
<rect x="0.5" y="1" width="47" height="47" rx="23.5" stroke="#262424"/>
<path d="M15.3753 17.75H12.7503C12.0003 17.75 11.8503 18.1031 11.8503 18.4924C11.8503 19.1877 12.7402 22.6361 15.9939 27.1969C18.1631 30.3116 21.2193 32 24.0003 32C25.6688 32 25.8753 31.625 25.8753 30.9791V28.625C25.8753 27.875 26.0333 27.7253 26.5617 27.7253C26.951 27.7253 27.6185 27.92 29.1759 29.4217C30.9557 31.2016 31.2491 32 32.2503 32H34.8753C35.6253 32 36.0003 31.625 35.7839 30.885C35.5472 30.1474 34.6974 29.0773 33.5699 27.8087C32.958 27.0857 32.0403 26.307 31.7622 25.9176C31.3728 25.4171 31.4841 25.1946 31.7622 24.7497L31.8089 24.6834C32.2044 24.1212 34.9842 20.1352 35.2941 18.7149C35.4609 18.1587 35.2941 17.75 34.5003 17.75H31.8753C31.2078 17.75 30.9001 18.1031 30.7332 18.4924C30.7332 18.4924 29.3983 21.7462 27.5072 23.8597C26.8954 24.4715 26.6173 24.6662 26.2836 24.6662C26.1168 24.6662 25.8752 24.4715 25.8752 23.9154V18.7149C25.8752 18.0475 25.6815 17.75 25.1253 17.75H21.0003C20.5832 17.75 20.3323 18.0598 20.3323 18.3534C20.3323 18.9861 21.2778 19.132 21.3753 20.9119V24.7775C21.3753 25.625 21.2222 25.7787 20.8885 25.7787C19.9986 25.7787 17.8339 22.5103 16.5501 18.7705C16.2985 18.0436 16.0461 17.75 15.3753 17.75Z" fill="#C7A17A"/>
</svg>
